<svg id="Layer_1" enable-background="new 0 0 512 512" height="512" viewBox="0 0 512 512" width="512" xmlns="http://www.w3.org/2000/svg"><g><path d="m92.111 449.103c43.412 39.095 100.868 62.897 163.889 62.897s120.477-23.802 163.889-62.897l66.229-97.818c9.629-26.28 14.884-54.67 14.884-84.287 0-135.311-109.691-245.002-245.002-245.002s-245.002 109.691-245.002 245.002c0 29.617 5.256 58.006 14.884 84.287z" fill="#816ae2"/><path d="m78.654 327.887v-17.622c-.83-3.945-.58 5.93-.58-128.643 0-6.761-5.481-12.247-12.241-12.248-6.761 0-12.241 5.481-12.241 12.241-.509 33.093 3.252 35.513-13.141 68.858-6.345 12.905-8.529 27.264-7.345 41.596l2.425 22.842c.405 4.947-.055 9.926-1.358 14.715l-6.128 16.075c-.711 1.865-1.437 3.724-2.163 5.583 13.874 37.866 36.833 71.346 66.229 97.818l10.371-32.667c4.441-13.153 16.455-23.847 29.082-29.18.101-.043.202-.085.303-.127 16.344-6.788 30.427-17.998 40.721-32.314h-67.008c-14.87.001-26.926-12.055-26.926-26.927z" fill="#f9ba8f"/><path d="m486.118 351.285c-.725-1.859-1.452-3.718-2.163-5.583l-6.128-16.075c-1.303-4.789-1.763-9.768-1.358-14.715l2.425-22.842c1.184-14.332-1-28.691-7.345-41.596-16.393-33.345-12.632-35.764-13.141-68.858 0-6.76-5.481-12.241-12.241-12.241-6.761 0-12.241 5.487-12.241 12.248 0 134.572.25 124.697-.58 128.643v17.622c0 14.872-12.056 26.927-26.927 26.927h-67.008c10.294 14.316 24.377 25.526 40.721 32.314.101.042.203.084.303.127 12.627 5.333 24.642 16.027 29.082 29.18l10.371 32.667c29.396-26.473 52.356-59.952 66.23-97.818z" fill="#f9ba8f"/><path d="m77.1 124.335v204.274c0 14.644 11.871 26.515 26.515 26.515h304.769c14.644 0 26.515-11.871 26.515-26.515v-204.274c0-14.644-11.871-26.515-26.515-26.515h-304.769c-14.644-.001-26.515 11.871-26.515 26.515z" fill="#2a428c"/><path d="m77.1 124.335v204.274c0 14.644 11.871 26.515 26.515 26.515h183.286c-8.72-9.301-2.276-18.068-2.276-18.068-10.5-7.694-4.125-16.013-4.125-16.013l-1.25-9.108c-7.417-5.648-1.803-12.747-1.803-12.747s-40.072-126.813-48.822-131.438-4.25-13.442-4.25-13.442l-3.5-9.108c-9.5-5.3-4.25-13.575-4.25-13.575l-7.247-33.806h-105.763c-14.644 0-26.515 11.872-26.515 26.516z" fill="#142766"/><path d="m95.168 124.334v204.274c0 4.646 3.801 8.448 8.448 8.448h304.769c4.646 0 8.448-3.801 8.448-8.448v-204.274c0-4.646-3.802-8.448-8.448-8.448-13.299 0-291.724 0-304.77 0-4.646.001-8.447 3.802-8.447 8.448z" fill="#e9efff"/><path d="m95.168 124.334v204.274c0 4.646 3.801 8.448 8.448 8.448h181.009c-10.5-7.694-4.125-16.013-4.125-16.013l-1.25-9.108c-7.417-5.648-1.803-12.747-1.803-12.747s-40.072-126.813-48.822-131.438-4.25-13.442-4.25-13.442l-3.5-9.108c-9.5-5.3-4.25-13.575-4.25-13.575l-3.374-15.738c-56.426 0-104.401 0-109.636 0-4.646 0-8.447 3.801-8.447 8.447z" fill="#bec8f7"/><path d="m352.827 4.554h-193.654c-3.272 0-5.924 2.652-5.924 5.924v111.496c0 3.272 2.652 5.924 5.924 5.924h193.654c3.272 0 5.924-2.652 5.924-5.924v-111.496c0-3.272-2.652-5.924-5.924-5.924z" fill="#4fabf7"/><path d="m153.249 10.478v111.496c0 3.272 2.652 5.924 5.924 5.924h117.619c1.025-1.609.89-2.989-.708-4.065-16.333-11-6.279-25.136-6.279-25.136-18.613-6.969-10.85-22.923-10.85-22.923l-10.703-23.268c-14.124-4.119-7.94-17.873-7.94-17.873-19.439-7.618-11.062-26.133-11.062-26.133l-4.499-3.946h-65.578c-3.272 0-5.924 2.652-5.924 5.924z" fill="#1886ea"/><g><path d="m352.827 132.453h-193.654c-5.778 0-10.478-4.7-10.478-10.478v-111.497c0-5.778 4.7-10.478 10.478-10.478h193.654c5.778 0 10.478 4.701 10.478 10.478v111.497c0 5.778-4.7 10.478-10.478 10.478zm-193.654-123.345c-.755 0-1.37.615-1.37 1.37v111.497c0 .755.615 1.37 1.37 1.37h193.654c.755 0 1.37-.615 1.37-1.37v-111.497c0-.755-.615-1.37-1.37-1.37z" fill="#9bd8f9"/></g><path d="m335.691 145.2h-131.473c-2.515 0-4.554 2.039-4.554 4.554 0 2.515 2.039 4.554 4.554 4.554h131.473c2.515 0 4.554-2.039 4.554-4.554.001-2.515-2.038-4.554-4.554-4.554z" fill="#bec8f7"/><path d="m173.06 145.2h12.23c2.515 0 4.554 2.039 4.554 4.554 0 2.515-2.039 4.554-4.554 4.554h-12.23c-2.515 0-4.554-2.039-4.554-4.554 0-2.515 2.039-4.554 4.554-4.554z" fill="#3c58a0"/><path d="m199.664 152.812v-6.115c0-2.515 2.039-4.554 4.554-4.554 2.515 0 4.554 2.039 4.554 4.554v6.115c0 2.515-2.039 4.554-4.554 4.554-2.515 0-4.554-2.039-4.554-4.554z" fill="#3c58a0"/><ellipse cx="256" cy="66.226" fill="#e9efff" rx="35.275" ry="35.275" transform="matrix(.92 -.391 .391 .92 -5.513 105.382)"/><path d="m258.954 75.774-10.703-23.268c-14.124-4.119-7.94-17.873-7.94-17.873-11.607 5.775-19.587 17.75-19.587 31.594 0 19.482 15.793 35.275 35.275 35.275 4.899 0 9.563-1 13.803-2.805-18.61-6.97-10.848-22.923-10.848-22.923z" fill="#bec8f7"/><path d="m269.945 62.84-18.184-10.193c-2.588-1.451-5.781.42-5.781 3.387v20.386c0 2.967 3.193 4.838 5.781 3.387l18.184-10.193c2.645-1.484 2.645-5.291 0-6.774z" fill="#4fabf7"/><path d="m254.786 57.376v11.232c0 1.635 1.759 2.665 3.185 1.866l10.019-5.616c.971-.545 1.28-1.653.957-2.577l-12.462-6.986c-.93.201-1.699 1.003-1.699 2.081z" fill="#9bd8f9"/><g><path d="m352.827 171.29h-193.654c-3.272 0-5.924 2.652-5.924 5.924v111.496c0 3.272 2.652 5.924 5.924 5.924h193.654c3.272 0 5.924-2.652 5.924-5.924v-111.496c0-3.272-2.652-5.924-5.924-5.924z" fill="#ff4155"/><path d="m153.249 177.214v111.496c0 3.272 2.652 5.924 5.924 5.924h117.619c1.025-1.608.89-2.989-.708-4.065-16.333-11-6.279-25.136-6.279-25.136-18.612-6.969-10.85-22.923-10.85-22.923l-10.703-23.268c-14.124-4.119-7.94-17.873-7.94-17.873-19.438-7.618-11.061-26.132-11.061-26.132l-4.499-3.946h-65.578c-3.273-.001-5.925 2.651-5.925 5.923z" fill="#e80054"/><circle cx="256" cy="232.962" fill="#e9efff" r="35.275"/><path d="m258.954 242.509-10.703-23.268c-14.124-4.119-7.94-17.873-7.94-17.873-11.607 5.775-19.587 17.75-19.587 31.594 0 19.482 15.793 35.275 35.275 35.275 4.899 0 9.563-1 13.803-2.805-18.61-6.969-10.848-22.923-10.848-22.923z" fill="#bec8f7"/><path d="m269.945 229.575-18.184-10.193c-2.588-1.451-5.781.42-5.781 3.387v20.386c0 2.967 3.193 4.838 5.781 3.387l18.184-10.193c2.645-1.483 2.645-5.291 0-6.774z" fill="#ff4155"/><path d="m254.786 224.111v11.232c0 1.635 1.759 2.665 3.185 1.866l10.019-5.616c.971-.544 1.28-1.653.957-2.577l-12.462-6.986c-.93.201-1.699 1.003-1.699 2.081z" fill="#ff7186"/></g><g><path d="m352.827 299.188h-193.654c-5.778 0-10.478-4.701-10.478-10.478v-111.497c0-5.778 4.7-10.478 10.478-10.478h193.654c5.778 0 10.478 4.701 10.478 10.478v111.497c0 5.778-4.7 10.478-10.478 10.478zm-193.654-123.344c-.755 0-1.37.615-1.37 1.37v111.496c0 .755.615 1.37 1.37 1.37h193.654c.755 0 1.37-.615 1.37-1.37v-111.497c0-.755-.615-1.37-1.37-1.37h-193.654z" fill="#ff7186"/></g><path d="m304.285 311.935h-100.067c-2.515 0-4.554 2.039-4.554 4.554s2.039 4.554 4.554 4.554h100.067z" fill="#ff4155"/><path d="m335.691 311.935h-24.128v9.108h24.128c2.515 0 4.554-2.039 4.554-4.554s-2.038-4.554-4.554-4.554z" fill="#bec8f7"/><path d="m173.06 311.935h12.23c2.515 0 4.554 2.039 4.554 4.554 0 2.515-2.039 4.554-4.554 4.554h-12.23c-2.515 0-4.554-2.039-4.554-4.554 0-2.515 2.039-4.554 4.554-4.554z" fill="#ff7186"/><path d="m303.37 319.547v-6.115c0-2.515 2.039-4.554 4.554-4.554 2.515 0 4.554 2.039 4.554 4.554v6.115c0 2.515-2.039 4.554-4.554 4.554-2.515 0-4.554-2.039-4.554-4.554z" fill="#ff7186"/><path d="m256 380.078c-63.712 0-115.361 39.309-115.361 87.8 0 5.591.695 11.057 2.007 16.358 33.897 17.727 72.45 27.764 113.354 27.764s79.457-10.037 113.354-27.764c1.313-5.301 2.007-10.767 2.007-16.358 0-48.49-51.649-87.8-115.361-87.8z" fill="#9181f2"/><g fill="#fd995b"><path d="m35.531 314.912c.405 4.947-.055 9.926-1.358 14.715l-6.128 16.075c-.711 1.865-1.437 3.724-2.163 5.583 13.874 37.866 36.833 71.346 66.229 97.818l10.371-32.667c4.441-13.153 16.455-23.847 29.082-29.18.101-.043.202-.085.303-.127-78.774 0-96.336-72.217-96.336-72.217z"/><path d="m476.469 314.912c-.405 4.947.055 9.926 1.358 14.715l6.128 16.075c.711 1.865 1.437 3.724 2.163 5.583-13.874 37.866-36.833 71.346-66.229 97.818l-10.371-32.667c-4.441-13.153-16.455-23.847-29.082-29.18-.101-.043-.202-.085-.303-.127 78.774 0 96.336-72.217 96.336-72.217z"/></g></g></svg>